# xmcd
#
# Track frame offsets: 
#        150
#        21507
#        45574
#        67878
#        82701
#        101916
#        121618
#        141359
#        162793
#        182144
#        205152
#        225596
#        243658
#        265046
#        284428
#        302298
#
# Disc length: 4323 seconds
#
# Revision: 0
# Processed by: cddbd v1.5.2PL0 Copyright (c) Steve Scherf et al.
# Submitted via: ExactAudioCopy v0.95b4
#
DISCID=d110e110
DTITLE=Dave Brubeck - Indian Summer
DYEAR=2007
DGENRE=Blues
TTITLE0=You'll Never Know
TTITLE1=I'm Alone
TTITLE2=Autumn in Our Town
TTITLE3=So Lonely
TTITLE4=I'm Afraid the Masquerade Is Over
TTITLE5=I Don't Stand a Ghost of a Chance with You
TTITLE6=Pacific Hail
TTITLE7=September Song
TTITLE8=Summer Song
TTITLE9=Thank You
TTITLE10=Georgia on My Mind
TTITLE11=Spring Is Here
TTITLE12=Sweet Lorraine
TTITLE13=Memories of You
TTITLE14=This Love of Mine
TTITLE15=Indian Summer
EXTD=
EXTT0=
EXTT1=
EXTT2=
EXTT3=
EXTT4=
EXTT5=
EXTT6=
EXTT7=
EXTT8=
EXTT9=
EXTT10=
EXTT11=
EXTT12=
EXTT13=
EXTT14=
EXTT15=
PLAYORDER=
